<svg width="95" height="98" viewBox="0 0 95 98" fill="none" xmlns="http://www.w3.org/2000/svg">
<path d="M9.77929 74.8105C8.69972 76.6557 7.63194 76.5253 7.14619 76.5032L21.5 98C25.1822 89.8731 29.9033 90.0668 34.5 79C34.5 79 24.2717 73.9122 20.1558 72.7923C18.0113 72.2088 19.5014 60.419 24.3207 53.0779C15.375 54.5751 22.9771 37.5587 22.9771 37.5587C15.1917 42.4992 15.0584 28.8218 15.4917 24.0224C8.22228 23.1576 11.4205 15.9626 6.91078 9.78897C3.10027 18.4997 6.23668 26.4607 1.37239 26.4671C2.7647 32.8886 8.99465 40.3869 0.76262 42.4601C2.14038 47.18 7.40751 55.2225 0.438921 57.7095C2.72884 59.8849 10.8589 72.9653 9.77929 74.8105Z" fill="#A6E3A1"/>
<path d="M62.4677 78.2291C60.6543 79.3613 53.5 77.5 53.5 77.5L60 98C63.5 94.5 72.538 85.7067 78.2935 78.2713C77.4764 78.324 73.2402 80.4549 72.4368 76.9298C71.6335 73.4048 78.7397 66.4037 86.6724 62.6368C78.2518 59.2664 93.5905 48.6801 93.5905 48.6801C84.3715 48.8545 91.3663 37.1002 94.2309 33.2253C88.47 28.7082 94.9419 24.2236 94.2978 16.6054C86.5151 22.0667 85.0569 30.4981 80.8979 27.9754C78.7499 34.185 80.1751 43.829 72.0648 41.3216C70.7886 46.0701 71.1085 55.6785 63.8624 54.1813C64.6881 57.23 66.571 75.6673 62.4677 78.2291Z" fill="#FAB387"/>
<path d="M31.7391 75.7103C26.5217 76.8575 19 71.5 19 71.5L38 98C44.5 93 52.6104 88.1888 58 78.5C58 78.5 51.3043 77.431 50.7077 72.9901C50.111 68.5492 50.7077 59.5545 59.8466 53.4815C48.2008 51.6498 65 36.1968 65 36.1968C53.27 38.5326 59.1027 23.7042 61.7391 18.6862C53.1881 14.949 60.2715 8.4088 57.4381 0C48.9381 7.94164 49.3008 17.7519 43.3224 15.8833C42.2175 23.3578 46.5832 33.861 35.5616 32.9267C35.1848 38.5573 38.1292 49.2771 28.4783 49.2771C30.3376 52.5103 36.9565 74.5632 31.7391 75.7103Z" fill="#CBA6F7"/>
</svg>
