<svg width="252" height="98" viewBox="0 0 252 98" fill="none" xmlns="http://www.w3.org/2000/svg">
<path d="M42.1954 58.2549C39.9346 59.7549 41.9708 57.5728 41.9346 57.5361C41.4241 57.0256 36.263 56.3174 33.4346 53.8174H28.4346L26.4346 52.8174L50.4346 15.5361C51.9346 13.0361 52.52 12.0132 53.4346 11.0361C54.3492 10.059 55.5939 10.0486 57.0489 10.0039L57.0499 10L74.9346 10.04L42.1954 58.2549Z" fill="#585B70"/>
<path d="M38.835 10.0361L21.001 91.8047C20.6627 93.7669 19.9863 95.2603 18.9717 96.2842C18.0133 97.3081 16.9004 97.5 15.4346 97.5H0L17.7344 16.0518C18.0727 14.0895 18.7491 12.5962 19.7637 11.5723C20.6783 10.5952 21.7336 10.0847 23.1885 10.04L23.1895 10.0361H38.835Z" fill="#585B70"/>
<path d="M24.0117 56.5361C23.7506 56.5361 24.2567 56.5444 24.0117 56.5361L25.0117 53.0361L25.5117 51.0361C25.5117 51.0361 42.5 54.0244 43.0117 54.5361C43.5234 55.0479 57.0489 98 57.0489 98H37.5432C36.0774 98 34.9645 97.8081 34.0061 96.7842C32.9914 95.7603 32.315 94.2669 31.9768 92.3047L24.0117 56.5361Z" fill="#585B70"/>
<path d="M142.369 10C143.835 10 144.948 10.1919 145.906 11.2158C146.921 12.2397 147.597 13.7331 147.936 15.6953L163.835 98H148.189L148.188 97.9961C146.734 97.9514 145.678 97.441 144.764 96.4639C143.749 95.44 143.073 93.9466 142.734 91.9844L132.378 38.2461L121.936 92.3047C121.597 94.2669 120.921 95.7603 119.906 96.7842C118.948 97.8081 117.835 98 116.369 98H100.935L116.734 16.0156C117.073 14.0534 117.749 12.56 118.764 11.5361C119.678 10.559 120.734 10.0486 122.188 10.0039L122.189 10H142.369Z" fill="#585B70"/>
<path d="M76.9473 78.3691L104.935 78.1494L101.213 98H52.9346L54.627 90.8818L56.1016 82.917C56.181 82.4876 56.2715 82.0922 56.3906 81.7285L69.0918 15.8252C69.4301 13.8629 70.1065 12.3696 71.1211 11.3457C72.0357 10.3686 73.091 9.85818 74.5459 9.81348L74.5469 9.80957H90.1924L76.9473 78.3691Z" fill="#585B70"/>
<path d="M166.714 74.8105C165.634 76.6557 164.567 76.5253 164.081 76.5032L178.435 98C182.117 89.8731 186.838 90.0668 191.435 79C191.435 79 181.206 73.9122 177.09 72.7923C174.946 72.2088 176.436 60.419 181.255 53.0779C172.31 54.5751 179.912 37.5587 179.912 37.5587C172.126 42.4992 171.993 28.8218 172.426 24.0224C165.157 23.1576 168.355 15.9626 163.845 9.78897C160.035 18.4997 163.171 26.4607 158.307 26.4671C159.699 32.8886 165.929 40.3869 157.697 42.4601C159.075 47.18 164.342 55.2225 157.373 57.7095C159.663 59.8849 167.793 72.9653 166.714 74.8105Z" fill="#A6E3A1"/>
<path d="M219.402 78.2291C217.589 79.3613 210.435 77.5 210.435 77.5L216.935 98C220.435 94.5 229.473 85.7067 235.228 78.2713C234.411 78.324 230.175 80.4549 229.371 76.9298C228.568 73.4048 235.674 66.4037 243.607 62.6368C235.186 59.2664 250.525 48.6801 250.525 48.6801C241.306 48.8545 248.301 37.1002 251.166 33.2253C245.405 28.7082 251.876 24.2236 251.232 16.6054C243.45 22.0667 241.991 30.4981 237.832 27.9754C235.684 34.185 237.11 43.829 228.999 41.3216C227.723 46.0701 228.043 55.6785 220.797 54.1813C221.623 57.23 223.506 75.6673 219.402 78.2291Z" fill="#FAB387"/>
<path d="M188.674 75.7103C183.456 76.8575 175.935 71.5 175.935 71.5L194.935 98C201.435 93 209.545 88.1888 214.935 78.5C214.935 78.5 208.239 77.431 207.642 72.9901C207.046 68.5492 207.642 59.5545 216.781 53.4815C205.135 51.6498 221.935 36.1968 221.935 36.1968C210.205 38.5326 216.037 23.7042 218.674 18.6862C210.123 14.949 217.206 8.4088 214.373 0C205.873 7.94164 206.235 17.7519 200.257 15.8833C199.152 23.3578 203.518 33.861 192.496 32.9267C192.119 38.5573 195.064 49.2771 185.413 49.2771C187.272 52.5103 193.891 74.5632 188.674 75.7103Z" fill="#CBA6F7"/>
</svg>
