<svg width="1393" height="543" viewBox="0 0 1393 543" fill="none" xmlns="http://www.w3.org/2000/svg">
<path d="M233.917 322.78C221.384 331.091 232.672 319 232.471 318.797C229.641 315.969 201.03 312.044 185.35 298.192H157.632L146.545 292.651L279.592 86.0829C287.908 72.2308 291.153 66.5632 296.223 61.1492C301.293 55.7352 308.194 55.6775 316.26 55.4298L316.265 55.4082L415.412 55.63L233.917 322.78Z" fill="#1E1E1E"/>
<path d="M215.288 55.6084L116.422 508.673C114.547 519.545 110.797 527.82 105.173 533.493C99.8594 539.166 93.6899 540.23 85.564 540.23H0L98.3136 88.9398C100.189 78.0674 103.939 69.7931 109.563 64.1198C114.633 58.7058 120.484 55.8777 128.549 55.63L128.555 55.6084H215.288Z" fill="#1E1E1E"/>
<path d="M133.113 313.256C131.665 313.256 134.471 313.302 133.113 313.256L138.656 293.863L141.428 282.782C141.428 282.782 235.605 299.339 238.442 302.175C241.279 305.01 316.26 543 316.26 543H208.126C200.001 543 193.831 541.937 188.518 536.263C182.893 530.59 179.144 522.316 177.268 511.443L133.113 313.256Z" fill="#1E1E1E"/>
<path d="M789.246 55.4082C797.372 55.4082 803.541 56.4713 808.855 62.1448C814.479 67.8181 818.229 76.0924 820.104 86.9648L908.245 543H821.512L821.506 542.978C813.441 542.731 807.591 539.903 802.52 534.489C796.896 528.815 793.146 520.541 791.271 509.669L733.858 211.915L675.969 511.443C674.094 522.316 670.344 530.59 664.719 536.263C659.406 541.937 653.237 543 645.111 543H559.547L647.136 88.7396C649.011 77.8671 652.761 69.5929 658.385 63.9196C663.455 58.5056 669.306 55.6775 677.371 55.4298L677.377 55.4082H789.246Z" fill="#1E1E1E"/>
<path d="M426.569 434.229L581.721 433.012L561.088 543H293.451L302.833 503.56L311.008 459.428C311.449 457.049 311.95 454.858 312.61 452.843L383.021 87.6845C384.897 76.812 388.646 68.5378 394.271 62.8645C399.341 57.4504 405.191 54.6224 413.257 54.3747L413.262 54.353H499.996L426.569 434.229Z" fill="#1E1E1E"/>
<path d="M924.205 414.511C918.22 424.735 912.301 424.013 909.608 423.89L989.18 543C1009.59 497.97 1035.77 499.044 1061.25 437.724C1061.25 437.724 1004.55 409.534 981.729 403.329C969.841 400.095 978.101 334.771 1004.82 294.095C955.226 302.39 997.369 208.106 997.369 208.106C954.21 235.48 953.47 159.696 955.872 133.104C915.573 128.312 933.303 88.4461 908.303 54.2389C887.179 102.503 904.566 146.614 877.6 146.649C885.318 182.229 919.855 223.777 874.219 235.263C881.857 261.416 911.056 305.978 872.425 319.758C885.12 331.811 930.19 404.287 924.205 414.511Z" fill="#1E1E1E"/>
<path d="M1216.29 433.453C1206.24 439.726 1166.58 429.413 1166.58 429.413L1202.61 543C1222.01 523.607 1272.12 474.885 1304.02 433.687C1299.49 433.979 1276.01 445.786 1271.56 426.254C1267.1 406.722 1306.5 367.931 1350.47 347.059C1303.79 328.384 1388.83 269.727 1388.83 269.727C1337.72 270.694 1376.5 205.565 1392.38 184.095C1360.44 159.067 1396.32 134.219 1392.75 92.0075C1349.6 122.267 1341.52 168.984 1318.46 155.007C1306.55 189.413 1314.45 242.849 1269.49 228.956C1262.42 255.266 1264.19 308.504 1224.02 300.209C1228.6 317.101 1239.04 419.259 1216.29 433.453Z" fill="#1E1E1E"/>
<path d="M1045.94 419.497C1017.02 425.853 975.321 396.168 975.321 396.168L1080.65 543C1116.68 515.296 1161.65 488.638 1191.52 434.954C1191.52 434.954 1154.41 429.031 1151.1 404.425C1147.79 379.819 1151.1 329.981 1201.76 296.331C1137.2 286.182 1230.33 200.56 1230.33 200.56C1165.3 213.502 1197.64 131.341 1212.25 103.537C1164.85 82.8295 1204.12 46.5916 1188.41 0C1141.29 44.0032 1143.3 98.3601 1110.16 88.0064C1104.03 129.421 1128.23 187.618 1067.13 182.441C1065.04 213.639 1081.37 273.036 1027.87 273.035C1038.17 290.95 1074.87 413.141 1045.94 419.497Z" fill="#1E1E1E"/>
</svg>
