<svg width="512" height="512" viewBox="0 0 512 512" fill="none" xmlns="http://www.w3.org/2000/svg">
<path d="M50.9269 390.847C45.0407 400.487 39.2188 399.806 36.5703 399.69L114.832 512C134.909 469.541 160.65 470.553 185.713 412.735C185.713 412.735 129.945 386.154 107.503 380.302C95.8109 377.254 103.935 315.659 130.212 277.305C81.4367 285.127 122.886 196.225 122.886 196.225C80.4375 222.037 79.7102 150.579 82.0728 125.505C42.4376 120.987 59.8755 83.3967 35.2868 51.1424C14.5106 96.6513 31.6114 138.244 5.08962 138.277C12.681 171.826 46.6488 211.001 1.76492 221.832C9.27693 246.492 37.9951 288.509 0 301.503C12.4854 312.868 56.8131 381.206 50.9269 390.847Z" fill="#CDD6F4"/>
<path d="M338.202 408.707C328.315 414.622 289.307 404.898 289.307 404.898L324.747 512C343.831 493.714 393.109 447.774 424.49 408.928C420.035 409.203 396.937 420.336 392.557 401.919C388.177 383.502 426.923 346.926 470.175 327.245C424.263 309.637 507.894 254.329 507.894 254.329C457.629 255.24 495.768 193.83 511.386 173.585C479.976 149.986 515.262 126.556 511.751 86.7548C469.317 115.287 461.366 159.337 438.69 146.157C426.978 178.599 434.749 228.984 390.529 215.884C383.571 240.693 385.315 290.892 345.807 283.07C350.309 298.997 360.575 395.323 338.202 408.707Z" fill="#CDD6F4"/>
<path d="M170.66 395.548C142.212 401.541 101.201 373.551 101.201 373.551L204.796 512C240.236 485.878 284.457 460.742 313.843 410.122C313.843 410.122 277.336 404.538 274.083 381.336C270.829 358.135 274.083 311.142 323.911 279.414C260.414 269.844 352.009 189.11 352.009 189.11C288.053 201.313 319.855 123.843 334.23 97.626C287.607 78.1008 326.228 43.9317 310.779 0C264.434 41.491 266.412 92.7447 233.815 82.9821C227.791 122.032 251.595 176.907 191.501 172.025C189.446 201.442 205.501 257.448 152.88 257.448C163.018 274.34 199.107 389.555 170.66 395.548Z" fill="#CDD6F4"/>
</svg>
